<?xml version="1.0" encoding="utf-8"?>
<!-- Generator: Adobe Illustrator 21.1.0, SVG Export Plug-In . SVG Version: 6.00 Build 0)  -->
<svg version="1.1" id="Layer_1" xmlns="http://www.w3.org/2000/svg" xmlns:xlink="http://www.w3.org/1999/xlink" x="0px" y="0px"
	 viewBox="0 0 497.98401 497.98401" style="enable-background:new 0 0 497.98401 497.98401;" xml:space="preserve">
<style type="text/css">
	.st0{fill:#3F3A34;}
	.st1{fill:#F49B0C;}
</style>
<path class="st0" d="M378.56,497.98401L392.552,456h-200.8c-16.96001,0-30.75999-13.79999-30.75999-30.76001V320h16v105.23999
	C176.992,433.384,183.608,440,191.752,440h223.00801l-7.336,22.01599L444.112,440h22.12799
	c8.13599,0,14.75201-6.616,14.75201-14.76001V294.76001c0-8.14401-6.616-14.76001-14.76001-14.76001H296.992v-16h169.23999
	c16.95999,0,30.76001,13.79999,30.76001,30.76001v130.48801c0,16.952-13.79999,30.75201-30.76001,30.75201h-17.68799
	L378.56,497.98401z"/>
<path class="st1" d="M184.992,184h120v113.23999C304.992,314.19998,291.19202,328,274.23199,328H264.992l16,40l-72-40H31.752
	c-16.96,0-30.76-13.79999-30.76-30.76001v-130.48C0.992,149.79999,14.792,136,31.752,136H168.992v32L184.992,184z"/>
<g>
	<path class="st0" d="M378.56,233.98399L392.552,192h-200.8c-16.96001,0-30.75999-13.8-30.75999-30.75999V30.76
		c0-16.96,13.8-30.76,30.75999-30.76h274.48798c16.952,0,30.75201,13.8,30.75201,30.76V161.248
		c0,16.952-13.79999,30.752-30.76001,30.752h-17.68799L378.56,233.98399z M191.752,16c-8.144,0-14.75999,6.616-14.75999,14.76
		V161.248c0,8.136,6.616,14.752,14.75999,14.752h223.00801l-7.336,22.01601L444.112,176h22.12799
		c8.13599,0,14.75201-6.616,14.75201-14.75999V30.76c0-8.144-6.616-14.76-14.76001-14.76H191.752z"/>
	<rect x="200.992" y="48" class="st0" width="256" height="16"/>
	<rect x="200.992" y="88" class="st0" width="256" height="16"/>
	<rect x="200.992" y="128" class="st0" width="216" height="16"/>
	<rect x="440.992" y="128" class="st0" width="16" height="16"/>
	<rect x="40.992" y="184" class="st0" width="104" height="16"/>
	<rect x="40.992" y="224" class="st0" width="224" height="16"/>
	<rect x="40.992" y="264" class="st0" width="184" height="16"/>
	<rect x="248.992" y="264" class="st0" width="16" height="16"/>
	<rect x="328.992" y="312" class="st0" width="128" height="16"/>
	<rect x="304.992" y="352" class="st0" width="152" height="16"/>
	<rect x="200.992" y="392" class="st0" width="216" height="16"/>
	<rect x="440.992" y="392" class="st0" width="16" height="16"/>
</g>
</svg>
