<?xml version="1.0" encoding="utf-8"?>
<!-- Generator: Adobe Illustrator 21.1.0, SVG Export Plug-In . SVG Version: 6.00 Build 0)  -->
<svg version="1.1" id="Capa_1" xmlns="http://www.w3.org/2000/svg" xmlns:xlink="http://www.w3.org/1999/xlink" x="0px" y="0px"
	 viewBox="0 0 496 496" style="enable-background:new 0 0 496 496;" xml:space="preserve">
<style type="text/css">
	.st0{fill:#F49B0C;}
	.st1{fill:#3F3A34;}
</style>
<g>
	<path class="st0" d="M168,464H88c-4.424,0-8-3.57599-8-8v-80c0-4.42401,3.576-8,8-8h80c4.424,0,8,3.57599,8,8v80
		C176,460.42401,172.424,464,168,464z"/>
	<path class="st0" d="M168,352H88c-4.424,0-8-3.57599-8-8v-80c0-4.42401,3.576-8,8-8h80c4.424,0,8,3.57599,8,8v80
		C176,348.42401,172.424,352,168,352z"/>
	<path class="st0" d="M168,240H88c-4.424,0-8-3.576-8-8v-80c0-4.424,3.576-8,8-8h80c4.424,0,8,3.576,8,8v80
		C176,236.424,172.424,240,168,240z"/>
</g>
<path class="st1" d="M456,376h-9.47198c0.896-2.51199,1.47198-5.18399,1.47198-8c0-13.23199-10.76801-24-24-24h-56V104
	c0-22.056-17.944-40-40-40h-53.75201l-4-16H224v-8c0-22.056-17.944-40-40-40s-40,17.944-40,40v8H97.752l-4,16H40
	C17.944,64,0,81.944,0,104v352c0,22.056,17.944,40,40,40h288c22.056,0,40-17.944,40-40h88c22.056,0,40-17.944,40-40
	S478.056,376,456,376z M432,368c0,4.41599-3.59201,8-8,8H280c-4.40799,0-8-3.58401-8-8s3.59201-8,8-8h144
	C428.40799,360,432,363.58401,432,368z M184,440c-13.23199,0-24-10.76801-24-24s10.76801-24,24-24h96h120v48H184z
	 M144.60001,421.90399l-14.896-3.72C128.696,417.92801,128,417.03201,128,416s0.696-1.92801,1.70399-2.17599l14.896-3.72
	c-0.29601,1.936-0.60001,3.87201-0.60001,5.896S144.304,419.95999,144.60001,421.90399z M160,40c0-13.232,10.76801-24,24-24
	s24,10.768,24,24v8h-48V40z M110.248,64h147.50401l12,48H98.248L110.248,64z M290.24799,128l-4-16H320v200h16V96h-53.75201l-4-16
	H328c13.23199,0,24,10.768,24,24v240h-16v-16h-16v16h-40c-13.23199,0-24,10.76801-24,24c0,2.81601,0.57599,5.48801,1.47198,8H184
	c-13.01601,0-24.48801,6.34399-31.79199,16H152l-26.176,6.30399C117.68,400.336,112,407.616,112,416s5.68,15.664,13.824,17.69598
	l24.24,6.064l1.98399,0.048C159.34399,449.57599,170.896,456,184,456h136v24H48V112h33.752l-4,16H290.24799z M16,456V104
	c0-13.232,10.768-24,24-24h49.752l-4,16H32v382.52802C22.712,475.216,16,466.41599,16,456z M336,478.52802V456h16
	C352,466.41599,345.28799,475.216,336,478.52802z M456,440h-40v-48h8h32c13.23199,0,24,10.76801,24,24S469.23199,440,456,440z"/>
<polygon class="st1" points="196.8,278.39999 187.2,265.60001 128.752,309.44 117.656,298.34399 106.344,309.65601 127.248,330.56 
	"/>
<polygon class="st1" points="196.8,166.39999 187.2,153.60001 128.752,197.44 117.656,186.34399 106.344,197.65601 127.248,218.56 
	"/>
<rect x="224" y="152" class="st1" width="64" height="16"/>
<rect x="224" y="184" class="st1" width="64" height="16"/>
<rect x="224" y="216" class="st1" width="64" height="16"/>
<rect x="224" y="264" class="st1" width="64" height="16"/>
<rect x="224" y="296" class="st1" width="64" height="16"/>
<rect x="224" y="328" class="st1" width="16" height="16"/>
<rect x="128" y="80" class="st1" width="16" height="16"/>
<rect x="224" y="80" class="st1" width="16" height="16"/>
</svg>
