<?xml version="1.0" encoding="utf-8"?>
<!-- Generator: Adobe Illustrator 21.0.2, SVG Export Plug-In . SVG Version: 6.00 Build 0)  -->
<svg fill="#f49b0c" version="1.1" id="Слой_1" xmlns="http://www.w3.org/2000/svg" xmlns:xlink="http://www.w3.org/1999/xlink" x="0px" y="0px"
	 viewBox="0 0 64.8 64.8" style="enable-background:new 0 0 64.8 64.8;" xml:space="preserve">
<g>
	<path class="st0" d="M29.3,32.2L1,60.5c-0.8,0.8-0.8,2.1,0,2.8c0.4,0.4,0.9,0.6,1.4,0.6c0.5,0,1-0.2,1.4-0.6l28.5-28.5l28.5,28.5
		c0.4,0.4,0.9,0.6,1.4,0.6s1-0.2,1.4-0.6c0.8-0.8,0.8-2.1,0-2.8L35.5,32.2L63.8,3.8c0.8-0.8,0.8-2.1,0-2.8C63,0.2,61.7,0.2,61,1
		L32.4,29.5L3.8,1C3.1,0.2,1.8,0.2,1,1C0.2,1.8,0.2,3,1,3.8L29.3,32.2z"/>
</g>
</svg>
