<?xml version="1.0" encoding="utf-8"?>
<!-- Generator: Adobe Illustrator 21.1.0, SVG Export Plug-In . SVG Version: 6.00 Build 0)  -->
<svg version="1.1" id="Слой_1" xmlns="http://www.w3.org/2000/svg" xmlns:xlink="http://www.w3.org/1999/xlink" x="0px" y="0px"
	 viewBox="0 0 331 94" style="enable-background:new 0 0 331 94;" xml:space="preserve">
<style type="text/css">
	.st0{fill:#F49B0C;}
	.st1{fill:#FFFFFF;}
</style>
<rect class="st0" width="331" height="94"/>
<g>
	<path d="M50.69141,67.99902h-6.65967l-1.13965-7.61914h-8.09961l-1.14014,7.61914h-6.05957l6.71973-41.99805h9.65918
		L50.69141,67.99902z M35.63232,54.67969h6.35986l-3.18018-21.23926L35.63232,54.67969z"/>
	<path d="M61.01172,60.25879l5.04004-34.25781h6.05957l-6.47949,41.99805h-9.83984L49.3125,26.00098h6.65967L61.01172,60.25879z"/>
	<path d="M73.25195,26.00098h20.39941v5.99951h-6.8999v35.99854h-6.59961V32.00049h-6.8999V26.00098z"/>
	<path d="M95.99121,36.08008c0-6.71973,3.54004-10.55957,10.01953-10.55957c6.47998,0,10.01953,3.83984,10.01953,10.55957v21.83887
		c0,6.7207-3.53955,10.56055-10.01953,10.56055c-6.47949,0-10.01953-3.83984-10.01953-10.56055V36.08008z M102.59082,58.33887
		c0,3,1.32031,4.14062,3.41992,4.14062c2.1001,0,3.41992-1.14062,3.41992-4.14062V35.66016
		c0-2.99951-1.31982-4.13965-3.41992-4.13965c-2.09961,0-3.41992,1.14014-3.41992,4.13965V58.33887z"/>
	<path class="st1" d="M129.1709,25.52051c6.41943,0,9.71924,3.83984,9.71924,10.55957v1.32031h-6.23975v-1.74023
		c0-2.99951-1.19971-4.13965-3.2998-4.13965c-2.09961,0-3.2998,1.14014-3.2998,4.13965
		c0,8.63965,12.89941,10.25977,12.89941,22.25879c0,6.7207-3.35986,10.56055-9.83936,10.56055
		c-6.47998,0-9.83984-3.83984-9.83984-10.56055v-2.58008h6.23975v3c0,3,1.31982,4.08008,3.41992,4.08008
		s3.41992-1.08008,3.41992-4.08008c0-8.63867-12.89941-10.25879-12.89941-22.25879
		C119.45117,29.36035,122.75098,25.52051,129.1709,25.52051z"/>
	<path class="st1" d="M142.73047,26.00098h10.43945c6.59961,0,9.83984,3.65967,9.83984,10.37939v21.23975
		c0,6.71875-3.24023,10.37891-9.83984,10.37891h-10.43945V26.00098z M149.33008,32.00049v29.99854h3.71973
		c2.1001,0,3.36035-1.08008,3.36035-4.08008V36.08008c0-2.99951-1.26025-4.07959-3.36035-4.07959H149.33008z"/>
	<path class="st1" d="M173.80957,43.7002h9.05957v6h-9.05957v12.29883h11.39941v6h-17.99902V26.00098h17.99902v5.99951h-11.39941
		V43.7002z"/>
	<path class="st1" d="M189.29004,26.00098h6.59961v35.99805h10.85938v6h-17.45898V26.00098z"/>
	<path class="st1" d="M218.26855,51.25977l-2.04004,3.83984v12.89941h-6.59961V26.00098h6.59961V44.2998l8.63965-18.29883h6.59961
		l-9.17969,18.71875l9.17969,23.2793h-6.7793L218.26855,51.25977z"/>
	<path class="st1" d="M255.82715,67.99902h-6.66016l-1.13867-7.61914h-8.09961l-1.14062,7.61914h-6.05957l6.71973-41.99805h9.65918
		L255.82715,67.99902z M240.76855,54.67969h6.35938l-3.17969-21.23926L240.76855,54.67969z"/>
	<path d="M268.54785,31.52051c-2.09961,0-3.41992,1.14014-3.41992,4.13965v4.5h-6.24023v-4.08008
		c0-6.71973,3.36035-10.55957,9.83984-10.55957c6.48047,0,9.83984,3.83984,9.83984,10.55957
		c0,13.7998-14.33984,18.54004-13.08008,25.91895h12.48047v6H258.8877v-5.16016c0-12.35938,13.08008-14.39844,13.08008-26.51855
		C271.96777,32.54053,270.64746,31.52051,268.54785,31.52051z"/>
	<path d="M281.08789,54.37988l11.99902-28.37891h7.2002v28.37891h3.12012v6h-3.12012v7.61914h-6.59961v-7.61914h-12.59961V54.37988z
		 M293.6875,54.37988V38.84033l-6.54004,15.53955H293.6875z"/>
</g>
</svg>
