<?xml version="1.0" encoding="utf-8"?>
<!-- Generator: Adobe Illustrator 21.1.0, SVG Export Plug-In . SVG Version: 6.00 Build 0)  -->
<svg version="1.1" id="Layer_1" xmlns="http://www.w3.org/2000/svg" xmlns:xlink="http://www.w3.org/1999/xlink" x="0px" y="0px"
	 viewBox="0 0 295.23801 295.23801" style="enable-background:new 0 0 295.23801 295.23801;" xml:space="preserve">
<style type="text/css">
	.st0{fill:#F49B0C;}
	.st1{fill:#3F3A34;}
</style>
<rect x="6" y="158.33333" class="st0" width="34.66667" height="26.33333"/>
<g>
	<g>
		<g>
			<polygon class="st0" points="257.14301,114.286 295.23801,114.286 295.23801,28.571 257.14301,28.571 			"/>
			<path class="st0" d="M242.85699,28.571h-52.381c-12.46201,0-22.69499,6.167-28.257,17.338l-26.295,68.376h106.933V28.571z"/>
			<path class="st1" d="M242.85699,28.571h-52.381c-12.46201,0-22.69499,6.167-28.257,17.338l-26.295,68.376h106.933V28.571z
				 M149.785,104.762l21.138-55.014c3.76199-7.514,10.705-11.652,19.552-11.652H233.332v66.666H149.785z"/>
			<rect x="214.286" y="123.81" class="st1" width="28.571" height="9.524"/>
			<rect x="257.14301" y="123.81" class="st1" width="9.52399" height="9.524"/>
			<rect x="214.286" y="47.619" class="st1" width="9.524" height="9.524"/>
			<rect x="195.23801" y="47.619" class="st1" width="9.524" height="9.524"/>
			<path class="st1" d="M190.476,0c-25.043,0-44.12401,13.743-56.85201,41.229L114.705,93.29c-1.352,3.019-3.895,5.667-7.01,7.671
				L36.7,29.967c-0.448-0.448-11.157-10.919-31.938-10.919v9.524c13.033,0,20.857,4.767,23.81,6.99v77.85701
				C11.652,124.31,0,144.30499,0,166.66701V209.524c0,16.162,11.681,33.33299,33.333,33.33299h14.529
				c1.486,17.88101,11.205,33.44299,25.381,42.85699H4.762v9.52399h204.76199v-9.52399h-73.243
				c14.17599-9.414,23.895-24.97601,25.381-42.85699h133.57599v-9.524H161.662c-2.433-29.28101-26.995-52.381-56.9-52.381
				s-54.467,23.10001-56.9,52.381H33.333c-15.467,0-23.81-12.267-23.81-23.81v-19.048h23.81c8.676,0,14.286-5.61,14.286-14.286
				v-9.524c0-8.67599-5.61-14.286-14.286-14.286h-21.89c5.819-21.705,24.371-38.095,45.7-38.095h38.09501
				c11.871,0,23.71-7.19,28.281-17.419l18.895-52.005C153.452,21.079,169.166,9.522,190.476,9.522h104.76201V0H190.476z
				 M104.762,190.476c26.257,0,47.619,21.362,47.619,47.619s-21.362,47.61899-47.619,47.61899s-47.619-21.362-47.619-47.619
				S78.505,190.476,104.762,190.476z M33.333,161.905c3.429,0,4.762,1.33299,4.762,4.76199v9.524
				c0,3.429-1.333,4.76199-4.762,4.76199H9.524v-14.286c0-1.605,0.09-3.19,0.229-4.76199H33.333z M95.238,104.762H57.143
				c-6.652,0-13.052,1.376-19.048,3.757v-63.69l59.743,59.743C96.971,104.677,96.105,104.762,95.238,104.762z"/>
			<path class="st1" d="M104.762,266.66699c15.757,0,28.57101-12.814,28.57101-28.571s-12.814-28.571-28.571-28.571
				s-28.572,12.813-28.572,28.57001C76.19,253.85201,89.005,266.66699,104.762,266.66699z M104.762,219.048
				c10.505,0,19.048,8.543,19.048,19.048s-8.543,19.048-19.048,19.048s-19.048-8.543-19.048-19.048
				C85.714,227.59,94.257,219.048,104.762,219.048z"/>
			<polygon class="st1" points="257.14301,114.286 295.23801,114.286 295.23801,104.762 266.66699,104.762 266.66699,38.095 
				295.23801,38.095 295.23801,28.571 257.14301,28.571 			"/>
			<rect x="219.048" y="285.71399" class="st1" width="9.524" height="9.52399"/>
			<rect x="180.952" y="261.905" class="st1" width="114.28601" height="9.52399"/>
		</g>
	</g>
</g>
</svg>
