<?xml version="1.0" encoding="utf-8"?>
<!-- Generator: Adobe Illustrator 21.1.0, SVG Export Plug-In . SVG Version: 6.00 Build 0)  -->
<svg version="1.1" id="Layer_1" xmlns="http://www.w3.org/2000/svg" xmlns:xlink="http://www.w3.org/1999/xlink" x="0px" y="0px"
	 viewBox="0 0 300.16 300.16" style="enable-background:new 0 0 300.16 300.16;" xml:space="preserve">
<style type="text/css">
	.st0{fill:#F49B0C;}
	.st1{fill:#3F3A34;}
</style>
<rect x="4.50739" y="257" class="st0" width="156.49261" height="18"/>
<g>
	<g>
		<path class="st0" d="M246.90601,33.889c-5.34,0-9.683-4.343-9.683-9.683v-4.841h-77.461v4.841c0,5.34-4.343,9.683-9.683,9.683
			h-4.841v106.508h106.508V33.889H246.90601z M169.44501,135.556c0-16.044,13.004-29.048,29.048-29.048s29.048,13.004,29.048,29.048
			H169.44501z"/>
		<path class="st1" d="M275.953,111.35h-4.841V0H125.873v111.35h-4.841c-13.347,0-24.206,10.859-24.206,24.206v48.41299H18.073
			C8.109,183.96899,0,192.078,0,202.041v80.041c0,9.96799,8.109,18.077,18.073,18.077h127.166h1.293h129.42198
			c13.34698,0,24.20599-10.85901,24.20599-24.20599v-24.20599v-48.41299v-29.048v-38.73
			C300.16,122.209,289.30099,111.35,275.953,111.35z M135.556,9.683h125.87302v121.032h-29.435
			c-2.36301-16.397-16.465-29.048-33.502-29.048s-31.13899,12.65-33.502,29.048h-29.435L135.556,9.683L135.556,9.683z
			 M222.21001,130.715h-47.44c2.246-11.033,12.03101-19.365,23.717-19.365S219.964,119.681,222.21001,130.715z M121.032,121.032
			h4.841v9.683h-4.841v9.683H275.953v-9.683h-4.841v-9.683h4.841c8.008,0,14.52399,6.516,14.52399,14.524v19.491
			c-4.05701-3.07401-9.05301-4.967-14.52399-4.967H121.032c-8.007,0-14.524-6.51601-14.524-14.524S113.025,121.032,121.032,121.032z
			 M18.073,193.651h128.45399c4.62801,0,8.395,3.767,8.395,8.39v49.705H9.683v-49.705C9.683,197.418,13.449,193.651,18.073,193.651z
			 M154.92101,271.112H9.683v-9.68301h145.239L154.92101,271.112L154.92101,271.112z M145.239,290.47699H18.073
			c-4.623,0-8.39-3.767-8.39-8.39001v-1.293h145.239v1.293c0,4.62299-3.767,8.39001-8.39,8.39001H145.239z M290.47699,242.064
			h-67.778c-8.007,0-14.524-6.51601-14.524-14.524s6.51601-14.524,14.524-14.524h67.778V242.064z M290.47699,203.334h-67.778
			c-13.347,0-24.20599,10.85899-24.20599,24.20599s10.85899,24.20599,24.20599,24.20599h67.778V275.952
			c0,8.008-6.51599,14.52399-14.52399,14.52399H162.44c1.336-2.517,2.164-5.345,2.164-8.39001v-80.04596
			c0-9.963-8.10899-18.073-18.073-18.073h-40.02299v-29.174c4.057,3.07401,9.053,4.967,14.524,4.967H275.953
			c8.008,0,14.52399,6.51601,14.52399,14.524V203.334z"/>
		<circle class="st1" cx="222.69901" cy="227.53999" r="4.841"/>
		<rect x="19.365" y="203.334" class="st1" width="33.889" height="9.683"/>
		<rect x="29.048" y="222.69901" class="st1" width="24.206" height="9.683"/>
	</g>
</g>
<g>
	<path class="st1" d="M79.74554,70.67429c3.11774-5.89319,4.89215-12.60187,4.89215-19.72003
		c0-23.33453-18.98431-42.31885-42.31885-42.31885S0,27.61972,0,50.95425c0,7.11816,1.77441,13.82684,4.89215,19.72003
		C1.77441,76.56747,0,83.27621,0,90.39438c0,7.1181,1.77435,13.82666,4.89203,19.71979C1.77435,116.00729,0,122.71591,0,129.83401
		c0,23.33459,18.98431,42.31927,42.31885,42.31927s42.31885-18.98468,42.31885-42.31927c0-7.1181-1.77435-13.82672-4.89203-19.71985
		c3.11768-5.89313,4.89203-12.60168,4.89203-19.71979C84.6377,83.27621,82.86328,76.56747,79.74554,70.67429z M75.62292,90.39438
		c0,18.36407-14.94,33.30408-33.30408,33.30408s-33.30408-14.94-33.30408-33.30408c0-3.89032,0.67682-7.62402,1.90826-11.09747
		c5.33978,5.9093,12.32208,10.30109,20.21692,12.46643v5.06757c0,4.14746-0.1167,7.91357-0.34912,11.29883
		c-0.08496,1.24854-0.20117,2.021-0.34912,2.31689c-0.10596,0.21191-0.25391,0.37061-0.44434,0.47607
		c-0.61377,0.31738-2.09473,0.49756-4.44336,0.53955v2.79297c2.72949-0.12695,5.59619-0.19043,8.60107-0.19043
		c2.72949,0,6.80225,0.06348,12.21924,0.19043v-2.79297l-4.28467-0.28564c-0.5293-0.08447-0.89404-0.20654-1.09521-0.36475
		c-0.20117-0.15918-0.34375-0.34375-0.42822-0.55566c-0.16943-0.48633-0.28564-1.65039-0.34912-3.49121
		c-0.08496-3.17383-0.12695-6.2417-0.12695-9.2041v-4.34711c0.73822,0.03851,1.48108,0.05933,2.2287,0.05933
		c0.91376,0,1.81818-0.03925,2.71771-0.09662c0.039,0.00476,0.07703,0.01569,0.11609,0.02014
		c0.64502,0.07471,1.30615,0.11133,1.9834,0.11133c2.53552,0,4.92303-0.59637,7.16681-1.77374
		c7.56433-2.23798,14.25427-6.52966,19.4118-12.2373C74.94611,82.77036,75.62292,86.50406,75.62292,90.39438z M75.62292,129.83401
		c0,18.36414-14.94,33.3045-33.30408,33.3045s-33.30408-14.94037-33.30408-33.3045c0-3.89014,0.67676-7.62378,1.90814-11.09717
		c5.33978,5.90936,12.32214,10.30127,20.21704,12.46661v3.43915c0,4.14746-0.1167,7.91357-0.34912,11.29883
		c-0.08496,1.24854-0.20117,2.021-0.34912,2.31689c-0.10596,0.21191-0.25391,0.37061-0.44434,0.47607
		c-0.61377,0.31738-2.09473,0.49756-4.44336,0.53955v2.79297c2.72949-0.12695,5.59619-0.19043,8.60107-0.19043
		c2.72949,0,6.80225,0.06348,12.21924,0.19043v-2.79297l-4.28467-0.28564c-0.5293-0.08447-0.89404-0.20654-1.09521-0.36475
		c-0.20117-0.15918-0.34375-0.34375-0.42822-0.55566c-0.16943-0.48633-0.28564-1.65039-0.34912-3.49121
		c-0.08496-3.17383-0.12695-6.2417-0.12695-9.2041v-2.71869c0.73822,0.03851,1.48108,0.05933,2.2287,0.05933
		c12.44244,0,23.64587-5.39966,31.39594-13.97638C74.94617,122.21024,75.62292,125.94388,75.62292,129.83401z M9.01477,50.95425
		c0-18.36407,14.94-33.30408,33.30408-33.30408s33.30408,14.94,33.30408,33.30408s-14.94,33.30408-33.30408,33.30408
		S9.01477,69.31833,9.01477,50.95425z"/>
	<path class="st1" d="M30.13995,33.50388c0.20117,0.12695,0.34375,0.27539,0.42871,0.44434
		c0.14795,0.27539,0.24854,0.72998,0.30176,1.36475c0.05225,0.63477,0.1001,2.23242,0.14258,4.79248l0.12695,5.9668v11.20361
		c0,4.14746-0.1167,7.91357-0.34912,11.29883c-0.08496,1.24854-0.20117,2.021-0.34912,2.31689
		c-0.10596,0.21191-0.25391,0.37061-0.44434,0.47607c-0.61377,0.31738-2.09473,0.49756-4.44336,0.53955v0.58044v2.21252
		c2.72949-0.12695,5.59619-0.19043,8.60107-0.19043c2.72949,0,6.80225,0.06348,12.21924,0.19043V71.9072l-4.28467-0.28564
		c-0.5293-0.08447-0.89404-0.20654-1.09521-0.36475c-0.20117-0.15918-0.34375-0.34375-0.42822-0.55566
		c-0.16943-0.48633-0.28564-1.65039-0.34912-3.49121c-0.08496-3.17383-0.12695-6.2417-0.12695-9.2041V45.97702l0.09521-6.2207
		c0.021-2.53906,0.08447-4.46436,0.19043-5.77637c1.45996-0.2749,2.78223-0.4126,3.96729-0.4126
		c2.49658,0,4.44336,0.72998,5.83984,2.18994s2.09473,3.63965,2.09473,6.53809c0,2.77197-0.6665,4.88281-1.99951,6.33154
		c-1.33301,1.44971-3.02588,2.17432-5.07812,2.17432c-0.33887,0-0.71436-0.03662-1.12646-0.11084
		c-0.41309-0.07422-0.85205-0.18506-1.31738-0.3335l-0.6665,0.69824c0.5498,0.91016,0.93066,1.66113,1.14258,2.25342
		c0.63477,0.14844,1.27441,0.25928,1.92041,0.33301c0.64502,0.07471,1.30615,0.11133,1.9834,0.11133
		c2.68701,0,5.20996-0.66113,7.56934-1.9834s4.09473-3.00977,5.20508-5.0625c1.11133-2.05225,1.6665-4.27393,1.6665-6.66504
		c0-2.39062-0.57666-4.3374-1.72998-5.83984c-1.15332-1.50195-2.53369-2.53906-4.1416-3.11035
		c-1.6084-0.57129-3.79834-0.85693-6.56982-0.85693l-14.18701,0.28564l-9.39453-0.22217v2.63428l3.49121,0.22217
		C29.57404,33.26071,29.93878,33.37692,30.13995,33.50388z"/>
</g>
</svg>
