<?xml version="1.0" encoding="utf-8"?>
<!-- Generator: Adobe Illustrator 21.1.0, SVG Export Plug-In . SVG Version: 6.00 Build 0)  -->
<svg version="1.1" id="Capa_1" xmlns="http://www.w3.org/2000/svg" xmlns:xlink="http://www.w3.org/1999/xlink" x="0px" y="0px"
	 viewBox="0 0 496 496" style="enable-background:new 0 0 496 496;" xml:space="preserve">
<style type="text/css">
	.st0{fill:#F49B0C;}
	.st1{fill:#3F3A34;}
</style>
<g>
	<polygon class="st0" points="299.948,385.224 252.25999,328 243.748,328 196.06,385.224 176.004,288 319.76401,288 	"/>
	<rect x="240.004" y="344" class="st0" width="16" height="144"/>
	<rect x="272.004" y="392" class="st0" width="16" height="16"/>
	<rect x="272.004" y="448" class="st0" width="16" height="16"/>
</g>
<g>
	<path class="st0" d="M120.004,208h32v-96h-32c-17.672,0-32,14.328-32,32v32C88.004,193.672,102.332,208,120.004,208z"/>
	<path class="st0" d="M376.004,208h-32v-96h32c17.672,0,32,14.328,32,32v32C408.004,193.672,393.67599,208,376.004,208z"/>
</g>
<g>
	<path class="st1" d="M447.81201,390.19199c-5.36801-32.23199-27.96799-58.67999-58.97601-69.01599l-68.832-22.944V288h-16v21.76801
		l79.776,26.59201c25.36801,8.45599,43.85599,30.09601,48.25601,56.47202L446.556,480h-55.31201l-7.28-72.79999l-15.92001,1.59201
		l7.12,71.19998H120.84396l7.12-71.20001l-15.92-1.59201L104.76397,480H49.452l14.528-87.168
		c4.392-26.37601,22.888-48.008,48.256-56.47202l79.768-26.59201V288h-16v10.23199l-68.832,22.944
		c-31,10.336-53.6,36.784-58.976,69.01599L30.556,496h434.888L447.81201,390.19199z"/>
	<path class="st1" d="M120.004,216h27.64799c4.112,13.864,11.616,26.576,22.12801,37.088l31.2,31.2
		C208.532,291.84,218.57201,296,229.25999,296h37.49599c10.67999,0,20.728-4.16,28.28-11.71201L315.31601,264H328.004
		c22.056,0,40-17.944,40-40v-8h8c22.056,0,40-17.944,40-40v-32c0-22.056-17.944-40-40-40h-9.31201
		C358.78,45.128,308.108,0,248.004,0s-110.776,45.128-118.688,104h-9.312c-22.056,0-40,17.944-40,40v32
		C80.004,198.056,97.948,216,120.004,216z M144.004,200h-16v-80h16v24v46.864V200z M283.716,272.97601
		C279.25201,277.44,273.06799,280,266.74802,280h-37.496c-6.32001,0-12.496-2.56-16.968-7.02399l-31.2-31.2
		c-13.60001-13.60001-21.088-31.68001-21.088-50.912V152h31.43199c35.20801,0,68.496-12.504,94.80002-35.408l2.448,4.08
		c10.20801,17.01601,27.87201,28.328,47.328,30.79199v39.392c0,19.23199-7.48801,37.312-21.08801,50.912L308.69199,248h-84.688v16
		h68.688L283.716,272.97601z M352.004,120h16v80h-16v-9.136V144V120z M352.004,224c0,12.16-9.12799,22.136-20.87201,23.688
		c7.952-9.36,13.79199-20.104,17.224-31.688h3.64801V224z M400.004,144v32c0,10.416-6.71201,19.216-16,22.528V121.48
		C393.29199,124.784,400.004,133.584,400.004,144z M248.004,16c51.36002,0,94.82401,38.024,102.59201,88H336.004v31.24001
		c-13.832-2.35201-26.28-10.592-33.608-22.8l-12.80801-21.344L282.34,98.344C258.06,122.624,225.78,136,191.436,136H160.004v-32
		h-14.592C153.17999,54.024,196.644,16,248.004,16z M96.004,144c0-10.416,6.712-19.216,16-22.528v77.04799
		c-9.288-3.312-16-12.112-16-22.528V144z"/>
</g>
</svg>
