<?xml version="1.0" encoding="utf-8"?>
<!-- Generator: Adobe Illustrator 21.1.0, SVG Export Plug-In . SVG Version: 6.00 Build 0)  -->
<svg fill="#f49b0c" version="1.1" id="Слой_1" xmlns="http://www.w3.org/2000/svg" xmlns:xlink="http://www.w3.org/1999/xlink" x="0px" y="0px"
	 viewBox="0 0 48 48" style="enable-background:new 0 0 48 48;" xml:space="preserve">
<path d="M12.68629,12.68629c-2.19203,2.19203-3.60624,4.87904-4.24264,7.77817l4.10122,0
	c0.56568-1.83848,1.55563-3.53554,2.96985-4.94975c4.6669-4.66691,12.30366-4.66691,16.97056,0l-4.24264,4.24264h11.31371V8.44365
	l-4.24264,4.24264C29.09117,6.46375,18.90883,6.46375,12.68629,12.68629z M19.75736,28.24264H8.44365v11.31371l4.24264-4.24264
	c6.22254,6.22254,16.40488,6.22254,22.62742,0c2.19203-2.19203,3.67696-4.94975,4.24264-7.77818h-4.10122
	c-0.56569,1.83848-1.55564,3.53553-2.96985,4.94975c-4.66691,4.6669-12.30366,4.6669-16.97056,0L19.75736,28.24264z"/>
</svg>
