<?xml version="1.0" encoding="utf-8"?>
<!-- Generator: Adobe Illustrator 21.1.0, SVG Export Plug-In . SVG Version: 6.00 Build 0)  -->
<svg version="1.1" id="Layer_1" xmlns="http://www.w3.org/2000/svg" xmlns:xlink="http://www.w3.org/1999/xlink" x="0px" y="0px"
	 viewBox="0 0 512 512" style="enable-background:new 0 0 512 512;" xml:space="preserve">
<style type="text/css">
	.st0{fill:#25D366;}
	.st1{fill:#FFFFFF;}
</style>
<circle class="st0" cx="256" cy="256" r="256"/>
<g>
	<path class="st1" d="M248.83701,108.447c-78.02899,3.712-139.604,68.69601-139.369,146.811
		c0.072,23.79199,5.816,46.24899,15.95,66.095L109.861,396.867c-0.841,4.086,2.843,7.66299,6.901,6.70099l73.995-17.53
		c19.011,9.47101,40.364,14.939,62.96201,15.284c79.75301,1.21899,146.25102-62.10501,148.74001-141.82901
		C405.121,174.035,334.591,104.362,248.83701,108.447L248.83701,108.447z M337.13,335.936
		c-21.66901,21.66901-50.483,33.604-81.13,33.604c-17.944,0-35.12601-4.02701-51.06601-11.966l-10.302-5.134l-45.37,10.74701
		l9.549-46.35599l-5.075-9.94299c-8.276-16.20599-12.472-33.728-12.472-52.084c0-30.64799,11.935-59.459,33.604-81.12999
		c21.476-21.478,50.759-33.604,81.13402-33.604c30.64401,0,59.45801,11.935,81.12701,33.604s33.604,50.483,33.604,81.127
		C370.73499,285.177,358.60699,314.45901,337.13,335.936L337.13,335.936z"/>
	<path class="st1" d="M327.11499,286.582l-28.384-8.14899c-3.729-1.069-7.74899-0.01001-10.46799,2.76001l-6.94199,7.07001
		c-2.92599,2.98401-7.366,3.94101-11.23999,2.37399c-13.427-5.43399-41.672-30.548-48.881-43.106
		c-2.084-3.62399-1.739-8.15199,0.817-11.46201l6.058-7.839c2.37399-3.07001,2.87399-7.19701,1.30499-10.74699l-11.94099-27.008
		c-2.86-6.468-11.12601-8.35201-16.52701-3.784c-7.92101,6.701-17.32001,16.88-18.461,28.16
		c-2.015,19.88699,6.515,44.95399,38.76199,75.05501c37.25699,34.77798,67.09399,39.36899,86.52301,34.664
		c11.01901-2.66699,19.82501-13.36499,25.379-22.12601C336.90601,296.46701,333.91,288.535,327.11499,286.582L327.11499,286.582z"/>
</g>
</svg>
